HIERARCHY
ROOT Hips
{
  OFFSET 5.72205e-005 65.662 3.42586
  CHANNELS 6 Xposition Yposition Zposition Zrotation Xrotation Yrotation
  JOINT Chest
  {
    OFFSET 0 8.7983 -4.7612
    CHANNELS 6 Xposition Yposition Zposition Zrotation Xrotation Yrotation
    JOINT Chest2
    {
      OFFSET 0 8.0291 0.4195
      CHANNELS 6 Xposition Yposition Zposition Zrotation Xrotation Yrotation
      JOINT Chest3
      {
        OFFSET 0 9.9351 -2.2114
        CHANNELS 6 Xposition Yposition Zposition Zrotation Xrotation Yrotation
        JOINT Neck
        {
          OFFSET 0 22.3885 -0.4656
          CHANNELS 6 Xposition Yposition Zposition Zrotation Xrotation Yrotation
          JOINT Head
          {
            OFFSET -0.0001 12.643 3.4389
            CHANNELS 6 Xposition Yposition Zposition Zrotation Xrotation Yrotation
            End Site
            {
              OFFSET 0.0001 17.6655 0.5274
            }
          }
        }
        JOINT LeftCollar
        {
          OFFSET 2.2603 21.606 7.4023
          CHANNELS 6 Xposition Yposition Zposition Zrotation Xrotation Yrotation
          JOINT LeftShoulder
          {
            OFFSET 13.5163 -1.1332 -5.0146
            CHANNELS 6 Xposition Yposition Zposition Zrotation Xrotation Yrotation
            JOINT LeftElbow
            {
              OFFSET -0.0995 -28.05 -0.2431
              CHANNELS 6 Xposition Yposition Zposition Zrotation Xrotation Yrotation
              JOINT LeftWrist
              {
                OFFSET 0.0679 -23.3996 -0.1402
                CHANNELS 6 Xposition Yposition Zposition Zrotation Xrotation Yrotation
                JOINT LeftFinger1
                {
                  OFFSET 0.7932 -9.069 2.5189
                  CHANNELS 6 Xposition Yposition Zposition Zrotation Xrotation Yrotation
                  JOINT LeftFinger11
                  {
                    OFFSET -0.8272 -3.3923 0.5977
                    CHANNELS 6 Xposition Yposition Zposition Zrotation Xrotation Yrotation
                    JOINT LeftFinger12
                    {
                      OFFSET -0.5649 -2.3158 0.4082
                      CHANNELS 6 Xposition Yposition Zposition Zrotation Xrotation Yrotation
                      End Site
                      {
                        OFFSET -0.4919 -1.6479 0.2673
                      }
                    }
                  }
                }
                JOINT LeftFinger2
                {
                  OFFSET 0.9159 -9.2044 0.2193
                  CHANNELS 6 Xposition Yposition Zposition Zrotation Xrotation Yrotation
                  JOINT LeftFinger21
                  {
                    OFFSET 0.0117 -4.1944 -0.0248
                    CHANNELS 6 Xposition Yposition Zposition Zrotation Xrotation Yrotation
                    JOINT LeftFinger22
                    {
                      OFFSET 0.0071 -2.3249 -0.0142
                      CHANNELS 6 Xposition Yposition Zposition Zrotation Xrotation Yrotation
                      End Site
                      {
                        OFFSET -0.1475 -2.0882 0.0028
                      }
                    }
                  }
                }
                JOINT LeftFinger3
                {
                  OFFSET 0.6113 -8.7231 -2.0637
                  CHANNELS 6 Xposition Yposition Zposition Zrotation Xrotation Yrotation
                  JOINT LeftFinger31
                  {
                    OFFSET -0.1927 -3.8059 -0.2383
                    CHANNELS 6 Xposition Yposition Zposition Zrotation Xrotation Yrotation
                    JOINT LeftFinger32
                    {
                      OFFSET -0.1091 -2.1688 -0.1362
                      CHANNELS 6 Xposition Yposition Zposition Zrotation Xrotation Yrotation
                      End Site
                      {
                        OFFSET -0.2358 -1.9176 -0.0906
                      }
                    }
                  }
                }
                JOINT LeftFinger4
                {
                  OFFSET -0.6151 -8.0947 -3.5641
                  CHANNELS 6 Xposition Yposition Zposition Zrotation Xrotation Yrotation
                  JOINT LeftFinger41
                  {
                    OFFSET -0.4882 -2.341 -0.6462
                    CHANNELS 6 Xposition Yposition Zposition Zrotation Xrotation Yrotation
                    JOINT LeftFinger42
                    {
                      OFFSET -0.3575 -1.7167 -0.4742
                      CHANNELS 6 Xposition Yposition Zposition Zrotation Xrotation Yrotation
                      End Site
                      {
                        OFFSET -0.4187 -1.5237 -0.3496
                      }
                    }
                  }
                }
                JOINT LeftFinger0
                {
                  OFFSET -1.42 -1.8761 1.4223
                  CHANNELS 6 Xposition Yposition Zposition Zrotation Xrotation Yrotation
                  JOINT LeftFinger01
                  {
                    OFFSET -1.1471 -3.4929 2.6334
                    CHANNELS 6 Xposition Yposition Zposition Zrotation Xrotation Yrotation
                    JOINT LeftFinger02
                    {
                      OFFSET -0.823 -2.3 1.6571
                      CHANNELS 6 Xposition Yposition Zposition Zrotation Xrotation Yrotation
                      End Site
                      {
                        OFFSET -0.5822 -1.6914 1.1582
                      }
                    }
                  }
                }
              }
            }
          }
        }
        JOINT RightCollar
        {
          OFFSET -2.2603 21.606 7.4023
          CHANNELS 6 Xposition Yposition Zposition Zrotation Xrotation Yrotation
          JOINT RightShoulder
          {
            OFFSET -13.5187 -1.1334 -5.0155
            CHANNELS 6 Xposition Yposition Zposition Zrotation Xrotation Yrotation
            JOINT RightElbow
            {
              OFFSET 0.0994 -28.0499 -0.2431
              CHANNELS 6 Xposition Yposition Zposition Zrotation Xrotation Yrotation
              JOINT RightWrist
              {
                OFFSET -0.0679 -23.3996 -0.1402
                CHANNELS 6 Xposition Yposition Zposition Zrotation Xrotation Yrotation
                JOINT RightFinger1
                {
                  OFFSET -0.7932 -9.0691 2.5189
                  CHANNELS 6 Xposition Yposition Zposition Zrotation Xrotation Yrotation
                  JOINT RightFinger11
                  {
                    OFFSET 0.8272 -3.3923 0.5977
                    CHANNELS 6 Xposition Yposition Zposition Zrotation Xrotation Yrotation
                    JOINT RightFinger12
                    {
                      OFFSET 0.565 -2.3158 0.4082
                      CHANNELS 6 Xposition Yposition Zposition Zrotation Xrotation Yrotation
                      End Site
                      {
                        OFFSET 0.4919 -1.6479 0.2673
                      }
                    }
                  }
                }
                JOINT RightFinger2
                {
                  OFFSET -0.916 -9.2044 0.2193
                  CHANNELS 6 Xposition Yposition Zposition Zrotation Xrotation Yrotation
                  JOINT RightFinger21
                  {
                    OFFSET -0.0117 -4.1944 -0.0248
                    CHANNELS 6 Xposition Yposition Zposition Zrotation Xrotation Yrotation
                    JOINT RightFinger22
                    {
                      OFFSET -0.0071 -2.3249 -0.0142
                      CHANNELS 6 Xposition Yposition Zposition Zrotation Xrotation Yrotation
                      End Site
                      {
                        OFFSET 0.1475 -2.0882 0.0028
                      }
                    }
                  }
                }
                JOINT RightFinger3
                {
                  OFFSET -0.6113 -8.7231 -2.0637
                  CHANNELS 6 Xposition Yposition Zposition Zrotation Xrotation Yrotation
                  JOINT RightFinger31
                  {
                    OFFSET 0.1927 -3.8059 -0.2383
                    CHANNELS 6 Xposition Yposition Zposition Zrotation Xrotation Yrotation
                    JOINT RightFinger32
                    {
                      OFFSET 0.1091 -2.1688 -0.1362
                      CHANNELS 6 Xposition Yposition Zposition Zrotation Xrotation Yrotation
                      End Site
                      {
                        OFFSET 0.2358 -1.9176 -0.0906
                      }
                    }
                  }
                }
                JOINT RightFinger4
                {
                  OFFSET 0.6151 -8.0947 -3.564
                  CHANNELS 6 Xposition Yposition Zposition Zrotation Xrotation Yrotation
                  JOINT RightFinger41
                  {
                    OFFSET 0.4882 -2.341 -0.6462
                    CHANNELS 6 Xposition Yposition Zposition Zrotation Xrotation Yrotation
                    JOINT RightFinger42
                    {
                      OFFSET 0.3574 -1.7166 -0.4742
                      CHANNELS 6 Xposition Yposition Zposition Zrotation Xrotation Yrotation
                      End Site
                      {
                        OFFSET 0.4187 -1.5237 -0.3496
                      }
                    }
                  }
                }
                JOINT RightFinger0
                {
                  OFFSET 1.4199 -1.8761 1.4221
                  CHANNELS 6 Xposition Yposition Zposition Zrotation Xrotation Yrotation
                  JOINT RightFinger01
                  {
                    OFFSET 1.1472 -3.4929 2.6336
                    CHANNELS 6 Xposition Yposition Zposition Zrotation Xrotation Yrotation
                    JOINT RightFinger02
                    {
                      OFFSET 0.8229 -2.3 1.6571
                      CHANNELS 6 Xposition Yposition Zposition Zrotation Xrotation Yrotation
                      End Site
                      {
                        OFFSET 0.5822 -1.6914 1.1582
                      }
                    }
                  }
                }
              }
            }
          }
        }
      }
    }
  }
  JOINT RightHip
  {
    OFFSET -9.412 3.9771 -0.7758
    CHANNELS 6 Xposition Yposition Zposition Zrotation Xrotation Yrotation
    JOINT RightKnee
    {
      OFFSET -0.7531 -40.938 0
      CHANNELS 6 Xposition Yposition Zposition Zrotation Xrotation Yrotation
      JOINT RightAnkle
      {
        OFFSET 0 -40.1986 0
        CHANNELS 6 Xposition Yposition Zposition Zrotation Xrotation Yrotation
        JOINT RightToe
        {
          OFFSET 0 -4.4182 9.239
          CHANNELS 6 Xposition Yposition Zposition Zrotation Xrotation Yrotation
          End Site
          {
            OFFSET 0 0 6.1981
          }
        }
      }
    }
  }
  JOINT LeftHip
  {
    OFFSET 9.4119 3.9773 -0.7758
    CHANNELS 6 Xposition Yposition Zposition Zrotation Xrotation Yrotation
    JOINT LeftKnee
    {
      OFFSET 0.7532 -40.9383 0
      CHANNELS 6 Xposition Yposition Zposition Zrotation Xrotation Yrotation
      JOINT LeftAnkle
      {
        OFFSET 0 -40.1986 0
        CHANNELS 6 Xposition Yposition Zposition Zrotation Xrotation Yrotation
        JOINT LeftToe
        {
          OFFSET 0 -4.4182 9.239
          CHANNELS 6 Xposition Yposition Zposition Zrotation Xrotation Yrotation
          End Site
          {
            OFFSET 0 0 6.1981
          }
        }
      }
    }
  }
}
MOTION
Frames:	4
Frame Time:	0.0333333
5.72205e-005 65.662 3.42586 0 0 -0 0 8.7983 -4.7612 0 0 -0 0 8.0291 0.4195 0 0 -0 0 9.9351 -2.2114 0 0 -0 0 22.3885 -0.4656 0 0 -0 -0.0001 12.643 3.4389 0 0 -0 2.2603 21.606 7.4023 0 0 -12.5014 13.5163 -1.1332 -5.0146 88.1196 14.2451 10.6914 -0.0995 -28.05 -0.2431 -0.00160068 -0.00239207 0.000740045 0.0679 -23.3996 -0.1402 -8.4365e-005 7.00714e-005 -9.52055e-007 0.7932 -9.069 2.5189 9.93923e-017 -1.98785e-016 -1.59028e-015 -0.8272 -3.3923 0.5977 9.93923e-017 -5.96354e-016 -1.59028e-015 -0.5649 -2.3158 0.4082 -9.93923e-017 -5.96354e-016 -1.59028e-015 0.9159 -9.2044 0.2193 9.93923e-017 -1.98785e-016 -1.59028e-015 0.0117 -4.1944 -0.0248 -0.0128176 0.00232552 8.52707e-005 0.0071 -2.3249 -0.0142 9.93923e-017 5.96354e-016 -0 0.6113 -8.7231 -2.0637 9.93923e-017 -1.98785e-016 -1.59028e-015 -0.1927 -3.8059 -0.2383 -0.0160551 0.00299681 0.000857156 -0.1091 -2.1688 -0.1362 -2.48481e-016 0 3.18055e-015 -0.6151 -8.0947 -3.5641 9.93923e-017 -1.98785e-016 -1.59028e-015 -0.4882 -2.341 -0.6462 -0.0125865 0.0031206 0.00282719 -0.3575 -1.7167 -0.4742 0 1.98785e-016 -0 -1.42 -1.8761 1.4223 9.93923e-017 -1.98785e-016 -1.59028e-015 -1.1471 -3.4929 2.6334 9.93923e-017 -5.96354e-016 -1.59028e-015 -0.823 -2.3 1.6571 -9.93923e-017 -5.96354e-016 -1.59028e-015 -2.2603 21.606 7.4023 -0.865644 0.16582 7.03859 -13.5187 -1.1334 -5.0155 -88.0329 10.2057 -10.5567 0.0994 -28.0499 -0.2431 0.0015593 -0.00248883 -0.000788628 -0.0679 -23.3996 -0.1402 7.87605e-005 4.10553e-005 1.24965e-005 -0.7932 -9.0691 2.5189 -3.97569e-016 -7.95139e-016 3.18055e-015 0.8272 -3.3923 0.5977 -1.98785e-016 -3.97569e-016 3.18055e-015 0.565 -2.3158 0.4082 -1.98785e-016 0 3.18055e-015 -0.916 -9.2044 0.2193 -3.97569e-016 -7.95139e-016 3.18055e-015 -0.0117 -4.1944 -0.0248 0.0129473 0.00231697 -8.70038e-005 -0.0071 -2.3249 -0.0142 9.93923e-017 -7.95139e-016 1.59028e-015 -0.6113 -8.7231 -2.0637 -3.97569e-016 -7.95139e-016 3.18055e-015 0.1927 -3.8059 -0.2383 0.0163314 0.00303369 -0.000872333 0.1091 -2.1688 -0.1362 3.97569e-016 7.95139e-016 -3.18055e-015 0.6151 -8.0947 -3.564 -3.97569e-016 -7.95139e-016 3.18055e-015 0.4882 -2.341 -0.6462 0.0145763 0.00367772 -0.00326275 0.3574 -1.7166 -0.4742 9.93923e-017 -3.97569e-016 -0 1.4199 -1.8761 1.4221 -3.97569e-016 -7.95139e-016 3.18055e-015 1.1472 -3.4929 2.6336 -1.98785e-016 -3.97569e-016 3.18055e-015 0.8229 -2.3 1.6571 -1.98785e-016 0 3.18055e-015 -9.412 3.9771 -0.7758 3.42482 1.32465 -0.0626183 -0.7531 -40.938 0 0.000117508 0.717283 0.000978199 0 -40.1986 0 -3.4257 -2.04197 -0.0604716 8.88178e-016 -4.4182 9.239 6.47761e-025 0 -0 9.4119 3.9773 -0.7758 -3.42483 1.34017 0.0627307 0.7532 -40.9383 -2.22045e-016 -0.000193936 0.682302 -0.0013703 -8.88179e-016 -40.1986 0 3.42574 -2.02253 0.0595886 -8.88178e-016 -4.4182 9.239 -8.45714e-024 0 -7.40531e-025 
-6.28363 91.1327 6.98539 -133.333 -5.18128 2.14319e-007 0 8.7983 -4.7612 -0.071559 -3.89552 -0.18645 -7.10543e-015 8.0291 0.4195 -0.156353 -7.79078 -0.379111 0 9.9351 -2.2114 -0.156353 -7.7908 -0.37911 0 22.3885 -0.4656 9.76375e-006 12.5375 -3.72535e-006 -0.0001 12.643 3.4389 -1.92442e-005 -6.51607 1.55249e-006 2.2603 21.606 7.4023 -15.0135 9.78829 4.25674 13.5163 -1.1332 -5.0146 84.4535 -42.4209 5.47257 -0.0995 -28.05 -0.2431 -18.1374 -39.6437 1.96844 0.0679 -23.3996 -0.1402 -19.7278 -10.4898 34.4285 0.7932 -9.069 2.5189 -2.77506e-006 1.4399e-005 -1.09839e-005 -0.8272 -3.3923 0.5977 -6.36111e-015 -1.78906e-015 9.29318e-015 -0.5649 -2.3158 0.4082 -3.18055e-015 -2.78299e-015 5.71506e-015 0.9159 -9.2044 0.2193 -2.77506e-006 1.4399e-005 -1.09839e-005 0.0117 -4.1944 -0.0248 -0.0128158 0.00232633 9.45742e-005 0.0071 -2.3249 -0.0142 -3.18055e-015 2.78299e-015 -5.11871e-015 0.6113 -8.7231 -2.0637 -2.77506e-006 1.4399e-005 -1.09839e-005 -0.1927 -3.8059 -0.2383 -0.0160371 0.00298441 0.000861333 -0.1091 -2.1688 -0.1362 -9.54166e-015 -7.95139e-016 4.32357e-015 -0.6151 -8.0947 -3.5641 -2.77506e-006 1.4399e-005 -1.09839e-005 -0.4882 -2.341 -0.6462 -0.0126181 0.00311775 0.0028498 -0.3575 -1.7167 -0.4742 -1.37935e-033 -7.95139e-016 -9.93923e-017 -1.42 -1.8761 1.4223 -2.77506e-006 1.4399e-005 -1.09839e-005 -1.1471 -3.4929 2.6334 -6.36111e-015 -1.78906e-015 9.29318e-015 -0.823 -2.3 1.6571 -3.18055e-015 -2.78299e-015 5.71506e-015 -2.2603 21.606 7.4023 11.7159 9.43212 -9.55149 -13.5187 -1.1334 -5.0155 -89.1334 -53.8351 -9.90224 0.0994 -28.0499 -0.2431 12.5955 -36.8955 -7.32745 -0.0679 -23.3996 -0.1402 23.8996 -13.9618 -31.3134 -0.7932 -9.0691 2.5189 -2.42765e-031 1.59028e-015 8.74653e-015 0.8272 -3.3923 0.5977 -4.96564e-032 -2.38542e-015 -1.19271e-015 0.565 -2.3158 0.4082 -3.18055e-015 -1.59028e-015 -1.59028e-015 -0.916 -9.2044 0.2193 -2.42765e-031 1.59028e-015 8.74653e-015 -0.0117 -4.1944 -0.0248 0.0129348 0.0023127 -9.25256e-005 -0.0071 -2.3249 -0.0142 6.36111e-015 -7.95139e-016 2.38542e-015 -0.6113 -8.7231 -2.0637 -2.42765e-031 1.59028e-015 8.74653e-015 0.1927 -3.8059 -0.2383 0.0163546 0.00304681 -0.00087349 0.1091 -2.1688 -0.1362 -3.18055e-015 -3.18055e-015 -2.38542e-015 0.6151 -8.0947 -3.564 -2.42765e-031 1.59028e-015 8.74653e-015 0.4882 -2.341 -0.6462 0.0145851 0.0036784 -0.00326111 0.3574 -1.7166 -0.4742 6.36111e-015 4.77083e-015 2.78299e-015 1.4199 -1.8761 1.4221 -2.42765e-031 1.59028e-015 8.74653e-015 1.1472 -3.4929 2.6336 -4.96564e-032 -2.38542e-015 -1.19271e-015 0.8229 -2.3 1.6571 -3.18055e-015 -1.59028e-015 -1.59028e-015 -9.412 3.9771 -0.7758 -32.6131 -59.7096 -30.2082 -0.7531 -40.938 7.10543e-015 53.5255 41.7906 -73.9373 -1.42109e-014 -40.1986 0 -12.5466 13.1625 18.5135 0 -4.4182 9.23901 -1.08017e-005 1.44762e-006 -1.69365e-006 9.4119 3.9773 -0.7758 35.9284 -62.388 33.1847 0.7532 -40.9383 1.42109e-014 -68.136 47.3213 85.571 -3.55271e-015 -40.1986 0 12.8985 11.736 -18.6581 0 -4.4182 9.23901 4.77083e-015 -4.40272e-007 -3.18055e-015 
1.546 96.6356 8.31745 166.667 -7.51338 -5.3823e-008 0 8.7983 -4.7612 -0.122337 -5.59611 -0.268535 0 8.0291 0.4195 -0.273145 -11.1916 -0.553131 -3.55271e-015 9.9351 -2.2114 -0.273144 -11.1916 -0.553134 0 22.3885 -0.4656 -4.16296e-006 18.441 2.46339e-006 -0.0001 12.643 3.4389 5.99106e-007 -10.2011 -5.63155e-007 2.2603 21.606 7.4023 -23.573 13.3445 12.1543 13.5163 -1.1332 -5.0146 83.0009 -67.9437 3.29215 -0.0995 -28.05 -0.2431 -31.3143 -57.1481 -2.61815 0.0679 -23.3996 -0.1402 -28.1979 -15.3081 50.1284 0.7932 -9.069 2.5189 -1.18121e-005 1.13531e-005 -6.68783e-006 -0.8272 -3.3923 0.5977 1.12797e-006 7.65274e-007 3.22331e-006 -0.5649 -2.3158 0.4082 3.13272e-006 -1.77465e-006 -1.01177e-005 0.9159 -9.2044 0.2193 -1.18121e-005 1.13531e-005 -6.68783e-006 0.0117 -4.1944 -0.0248 -0.0128297 0.00233436 0.000102493 0.0071 -2.3249 -0.0142 1.06518e-005 -3.4712e-005 -2.36919e-005 0.6113 -8.7231 -2.0637 -1.18121e-005 1.13531e-005 -6.68783e-006 -0.1927 -3.8059 -0.2383 -0.0160267 0.00298888 0.000857565 -0.1091 -2.1688 -0.1362 -2.71039e-006 -1.01536e-005 -1.1743e-005 -0.6151 -8.0947 -3.5641 -1.18121e-005 1.13531e-005 -6.68783e-006 -0.4882 -2.341 -0.6462 -0.0125841 0.00312038 0.00283145 -0.3575 -1.7167 -0.4742 -1.64379e-006 -1.08818e-005 -1.02386e-005 -1.42 -1.8761 1.4223 -1.18121e-005 1.13531e-005 -6.68783e-006 -1.1471 -3.4929 2.6334 1.12797e-006 7.65274e-007 3.22331e-006 -0.823 -2.3 1.6571 3.13272e-006 -1.77465e-006 -1.01177e-005 -2.2603 21.606 7.4023 19.0676 12.7795 -17.3872 -13.5187 -1.1334 -5.0155 -82.2979 -82.5763 -2.50928 0.0994 -28.0499 -0.2431 21.9734 -53.3888 -6.33899 -0.0679 -23.3996 -0.1402 34.4468 -20.4308 -45.4337 -0.7932 -9.0691 2.5189 6.62086e-032 -2.38542e-015 1.59028e-015 0.8272 -3.3923 0.5977 -3.18055e-015 -4.77083e-015 -1.59028e-015 0.565 -2.3158 0.4082 -2.64834e-031 4.77083e-015 3.18055e-015 -0.916 -9.2044 0.2193 6.62086e-032 -2.38542e-015 1.59028e-015 -0.0117 -4.1944 -0.0248 0.012948 0.00230842 -8.93718e-005 -0.0071 -2.3249 -0.0142 0 1.59028e-015 -0 -0.6113 -8.7231 -2.0637 6.62086e-032 -2.38542e-015 1.59028e-015 0.1927 -3.8059 -0.2383 0.0163381 0.00301296 -0.000883054 0.1091 -2.1688 -0.1362 -1.76556e-031 3.18055e-015 3.18055e-015 0.6151 -8.0947 -3.564 6.62086e-032 -2.38542e-015 1.59028e-015 0.4882 -2.341 -0.6462 0.0145825 0.00366495 -0.00327322 0.3574 -1.7166 -0.4742 -6.35299e-006 -1.86731e-005 -7.10159e-006 1.4199 -1.8761 1.4221 6.62086e-032 -2.38542e-015 1.59028e-015 1.1472 -3.4929 2.6336 -3.18055e-015 -4.77083e-015 -1.59028e-015 0.8229 -2.3 1.6571 -2.64834e-031 4.77083e-015 3.18055e-015 -9.412 3.9771 -0.7758 -109.289 -69.9449 -95.9326 -0.7531 -40.938 0 89.5613 23.6592 -100.33 1.42109e-014 -40.1986 0 -21.5559 16.3569 29.5964 0 -4.4182 9.239 -4.39935e-008 -2.03864e-007 -8.34163e-007 9.4119 3.9773 -0.7758 116.938 -70.4215 102.082 0.7532 -40.9383 1.42109e-014 -104.992 24.6749 108.148 -1.42109e-014 -40.1986 0 20.5993 15.6162 -28.8255 -2.84217e-014 -4.4182 9.23901 -2.28201e-006 -1.82237e-006 3.12224e-007 
-0.0880757 96.19 8.08072 180 -6.99617 -8.60128e-009 0 8.7983 -4.7612 -0.110499 -5.10192 -0.249999 0 8.0291 0.4195 -0.244918 -10.2033 -0.512992 0 9.9351 -2.2114 -0.244918 -10.2033 -0.512994 0 22.3885 -0.4656 1.12893e-007 17.7106 2.68309e-007 -0.0001 12.643 3.4389 -5.19742e-008 -11.0559 2.51873e-007 2.2603 21.606 7.4023 -21.4358 12.2356 10.3678 13.5163 -1.1332 -5.0146 83.2954 -62.2714 3.75452 -0.0995 -28.05 -0.2431 -28.2543 -53.8238 -1.37434 0.0679 -23.3996 -0.1402 -26.0286 -14.0979 46.7307 0.7932 -9.069 2.5189 3.31043e-032 -7.95139e-016 2.38542e-015 -0.8272 -3.3923 0.5977 -6.36111e-015 7.95139e-016 2.38542e-015 -0.5649 -2.3158 0.4082 3.18055e-015 1.59028e-015 2.38542e-015 0.9159 -9.2044 0.2193 3.31043e-032 -7.95139e-016 2.38542e-015 0.0117 -4.1944 -0.0248 -0.0127951 0.00234246 7.58579e-005 0.0071 -2.3249 -0.0142 3.18055e-015 -7.95139e-016 -2.38542e-015 0.6113 -8.7231 -2.0637 3.31043e-032 -7.95139e-016 2.38542e-015 -0.1927 -3.8059 -0.2383 -0.0160968 0.00301153 0.00085286 -0.1091 -2.1688 -0.1362 3.17049e-006 -5.95009e-006 3.30815e-006 -0.6151 -8.0947 -3.5641 3.31043e-032 -7.95139e-016 2.38542e-015 -0.4882 -2.341 -0.6462 -0.0126711 0.00313991 0.00283987 -0.3575 -1.7167 -0.4742 -6.36111e-015 -2.38542e-015 1.59028e-015 -1.42 -1.8761 1.4223 3.31043e-032 -7.95139e-016 2.38542e-015 -1.1471 -3.4929 2.6334 -6.36111e-015 7.95139e-016 2.38542e-015 -0.823 -2.3 1.6571 3.18055e-015 1.59028e-015 2.38542e-015 -2.2603 21.606 7.4023 17.2536 11.6603 -15.7245 -13.5187 -1.1334 -5.0155 -86.618 -76.22 -6.94773 0.0994 -28.0499 -0.2431 19.8441 -50.3868 -6.69459 -0.0679 -23.3996 -0.1402 31.7951 -18.8119 -42.4476 -0.7932 -9.0691 2.5189 1.85642e-006 6.99445e-006 5.04205e-006 0.8272 -3.3923 0.5977 -6.36111e-015 -4.77083e-015 6.36111e-015 0.565 -2.3158 0.4082 -4.41391e-032 -1.59028e-015 -1.59028e-015 -0.916 -9.2044 0.2193 1.85642e-006 6.99445e-006 5.04205e-006 -0.0117 -4.1944 -0.0248 0.0129395 0.00230513 -8.75206e-005 -0.0071 -2.3249 -0.0142 1.08558e-005 -5.06036e-006 4.05079e-007 -0.6113 -8.7231 -2.0637 1.85642e-006 6.99445e-006 5.04205e-006 0.1927 -3.8059 -0.2383 0.0163273 0.00301547 -0.000883139 0.1091 -2.1688 -0.1362 -9.54166e-015 0 3.18055e-015 0.6151 -8.0947 -3.564 1.85642e-006 6.99445e-006 5.04205e-006 0.4882 -2.341 -0.6462 0.014611 0.00367933 -0.00326659 0.3574 -1.7166 -0.4742 3.18055e-015 -4.77083e-015 -1.59028e-015 1.4199 -1.8761 1.4221 1.85642e-006 6.99445e-006 5.04205e-006 1.1472 -3.4929 2.6336 -6.36111e-015 -4.77083e-015 6.36111e-015 0.8229 -2.3 1.6571 -4.41391e-032 -1.59028e-015 -1.59028e-015 -9.412 3.9771 -0.7758 -86.599 -70.7276 -76.4939 -0.7531 -40.938 -1.42109e-014 82.8168 28.7259 -96.6507 0 -40.1986 -7.10543e-015 -19.3762 15.6025 27.0072 -1.42109e-014 -4.4182 9.239 -1.26492e-008 3.84923e-011 -2.12773e-007 9.4119 3.9773 -0.7758 94.2909 -71.9747 83.0599 0.7532 -40.9383 1.42109e-014 -98.2916 30.3721 106.153 1.42109e-014 -40.1986 7.10543e-015 18.8445 14.6826 -26.5973 0 -4.4182 9.239 -7.05686e-015 0 7.95139e-016 
